<svg xmlns="http://www.w3.org/2000/svg" xmlns:xlink="http://www.w3.org/1999/xlink" viewBox="0 0 175.25 175.25"><defs><style>.cls-1{fill:url(#linear-gradient);}.cls-2{fill:#493c36;}</style><linearGradient id="linear-gradient" x1="-5.5" y1="133.88" x2="446.38" y2="-90.55" gradientUnits="userSpaceOnUse"><stop offset="0" stop-color="#afa9a0"/><stop offset="0.87" stop-color="#483326"/></linearGradient></defs><title>logo</title><g id="Layer_2" data-name="Layer 2"><g id="Layer_1-2" data-name="Layer 1"><circle class="cls-1" cx="87.63" cy="87.63" r="87.63"/><path class="cls-2" d="M77.83,77.51a29.48,29.48,0,0,1-8.18.55c-2.47-.36-7.77-.46-10.26,3.63a.3.3,0,0,1-.08.08c-1.28,1-3.78-1.5-4.73-2.14-.7-.45-7.08-2.58-8.73,3.12-1.5,5.16,8.68,4.84,10.62,4.74a.24.24,0,0,1,.25.29c-.41,1.9-3,11.69-14,13.35C30.59,103,32.89,84.31,32.89,84.31S34.82,58.21,51.36,58c4.41-.6,2.92,8.11,2.22,11.38a.38.38,0,0,0,.65.35c2.36-2.34,7.78-9.08-.94-14.67-4.87-3.22-18.1,1.28-22.79,19.2S25,105.82,37.12,106.18s16.63-5.33,19.39-10.47,3.11-14.84,15.37-14.56a7.89,7.89,0,0,0,2.06-.23c9.48-2.2,11.78-7.65,14.64-11.66a.33.33,0,0,0-.5-.42C85,71.89,79.3,77.26,77.83,77.51ZM53.06,84.7c-1.17.48-3.51,0-1.65-2.13,0,0,2.34-2,3.31-.69S54.46,84.13,53.06,84.7Z"/><path class="cls-2" d="M62.71,90.42a2.13,2.13,0,0,0,0-2.06c-.55-1.34,1.47-1.84,1.47-1.84s-.58.25-.19,1.86a3,3,0,0,1-.2,2.06,50.19,50.19,0,0,1-4.52,6.43c-2.35,3.08.59,6.56,2.39,6.74s4.22.41,7.35-3.67c.78-.88,2.2-.1,2.16.5.64,2,5,3.54,6.11-1.29,0,0,0-.54-3.91,1-1.58.53-1.11-1.47-.25-4.1s1.33-6.57,1-7.58c-.21-.51-.66-.55-1.07.24s-4,9.75-9,10.61c-1.24.21.17-5.1.79-6.2,2-3.06,1.6-5.88,1-7a1.32,1.32,0,0,0-.58-.59C63.05,84.31,58.72,87.6,62.71,90.42Z"/><path class="cls-2" d="M78,84.18a.31.31,0,0,0-.1.53c1.72,1.39,7.92,7.59-.26,19-.6,1.58,4.45.52,6.75-7.39.92-2.89.23-8.36,2.39-11.9.64-1,2.16,2.58,1.52,5.75,1.15,3.17,6.16.38,4.69-2.64-.69-1.36-1.34,1.63-1.8,1.67s-1.24,1-1.74-3.31-3.4-3.56-5.56-.4c-.37.54-2.9-.93-2.9-.93A3.83,3.83,0,0,0,78,84.18Z"/><path class="cls-2" d="M95.73,89.6s-3-3.45,2.65-4.86c3-.69,3.86,4.24,1,6.89s-3.24,8.1,1.17,6.55c2.14-.76,2.65-3.76,2.76-6.9s3.06-6.37,4.06-5.51-1.38,4.41-1.48,4.62-3.29,5-.94,7.74a.85.85,0,0,0,1.3,0c.34-.45.48-1.33-.26-3-.2-.45.62-1.21.93-.72s2.59,2.13-.31,5c-1.17,1.14-3.51-1.31-3.82-1.31s-.66-.13-1.1.93-2,3.55-5.93,2.73S94,95.7,94.35,95.14s4.38-7,3.59-8.06-1.25.93-1.25.93S97,89.91,95.73,89.6Z"/><path class="cls-2" d="M109.63,85.05a13.09,13.09,0,0,1,0,12.91,2.79,2.79,0,0,0,.11,1.46.5.5,0,0,0,.92.15c.69-1.12,1.82-2.93,2.66-4a8,8,0,0,0,1.14-2.11c.78-2.14,2.5-6,4.64-5.48,1.88.51,0,5.7-.74,7.72a3.93,3.93,0,0,0,3.08,5.15c2.71.64,3.86-3.54,1.42-4.46-.68-.32-.55.87-.5,1.15s0,2-1.75.28,1-7.4,1.11-7.82,1.51-6.11-5.24-3.81c-.55.23-1.18.46-1.67.63a1,1,0,0,0-.68,1c0,.24,0,.46-.18.5a1.12,1.12,0,0,1-1.15-1.1c0-.74,0-2.1-.87-2.16-.2,0-.33-.21-.41-.38a.52.52,0,0,0-.47-.29,1.62,1.62,0,0,0-1.42.67"/><path class="cls-2" d="M145.7,97.84c-.89.23-4.75,1.06-5.62.79s-.41-2-.17-2.49-.34-3.37-3.17-1.27c-.74.74-1.9,2.51-2.59,2.21s0-5.1,1.66-7a3.51,3.51,0,0,0-.42-5.14s-.77-.84-.82,0c0,0,1,2.32,0,2.73s-6.45-3.15-8.83,2.88-.08,14.33,6.57,6.43c.93-1.16,2.23,2.23,2.78,2.43s2.41,2.76,12.64-.72C148.6,98.49,146.6,97.59,145.7,97.84Zm-13-4.45c-.44,1.06-3.26,4.92-3.92,3.65-2.38-5.58,2-7.86,2-7.86C133.75,88.11,133.2,92.31,132.74,93.39Zm4.73,4.13c-.75-.74.31-1.86.31-1.86.32-.32,1.2,0,.86,1.24A.85.85,0,0,1,137.47,97.52Z"/></g></g></svg>